# xmcd
#
# Track frame offsets:
#	150
#	20099
#	39964
#	59055
#	74731
#	92349
#	109242
#	126094
#	142199
#	158510
#
# Disc length: 2321 seconds
#
# Revision: 1
# Processed by: cddbd v1.5.2PL0 Copyright (c) Steve Scherf et al.
# Submitted via: audiograbber 1.83.01
#
DISCID=8e090f0a
DTITLE=Kenny Rogers - What About Me?
DYEAR=1984
DGENRE=Country
TTITLE0=What About Me? (with Kim Carnes and James Ingram)
TTITLE1=The Night Goes On
TTITLE2=Dream Dancin'
TTITLE3=Two Hearts One Love
TTITLE4=I Don't Want To Know Why (with Cindy Fee)
TTITLE5=Didn't We?
TTITLE6=Somebody Took My Love
TTITLE7=Crazy
TTITLE8=The Stranger
TTITLE9=Heart To Heart
EXTD=
EXTT0=
EXTT1=
EXTT2=
EXTT3=
EXTT4=
EXTT5=
EXTT6=
EXTT7=
EXTT8=
EXTT9=
PLAYORDER=
